<svg xmlns="http://www.w3.org/2000/svg" width="77" height="16" viewBox="0 0 77 16">
  <g fill="none" fill-rule="evenodd" transform="translate(0 -2)">
    <g transform="translate(0 1)">
      <path fill="#000000" d="M13.9648438,3.703125 C13.9648438,3.88997489 13.8976244,4.05061782 13.7631836,4.18505859 C13.6287428,4.31949937 13.4680999,4.38671875 13.28125,4.38671875 C13.0944001,4.38671875 12.9337572,4.31949937 12.7993164,4.18505859 C12.6648756,4.05061782 12.5976562,3.88997489 12.5976562,3.703125 C12.5976562,3.51627511 12.6648756,3.35563218 12.7993164,3.22119141 C12.9337572,3.08675063 13.0944001,3.01953125 13.28125,3.01953125 C13.4680999,3.01953125 13.6287428,3.08675063 13.7631836,3.22119141 C13.8976244,3.35563218 13.9648438,3.51627511 13.9648438,3.703125 Z M12.734375,13 L12.734375,5.890625 C12.734375,5.74023362 12.7879226,5.61149142 12.8950195,5.50439453 C13.0021164,5.39729764 13.1308586,5.34375 13.28125,5.34375 C13.4316414,5.34375 13.5603836,5.39729764 13.6674805,5.50439453 C13.7745774,5.61149142 13.828125,5.74023362 13.828125,5.890625 L13.828125,13 C13.828125,13.9069056 13.5079785,14.6804981 12.8676758,15.3208008 C12.2273731,15.9611035 11.4537806,16.28125 10.546875,16.28125 C10.3964836,16.28125 10.2677414,16.2277024 10.1606445,16.1206055 C10.0535476,16.0135086 10,15.8847664 10,15.734375 C10,15.5839836 10.0535476,15.4552414 10.1606445,15.3481445 C10.2677414,15.2410476 10.3964836,15.1875 10.546875,15.1875 C11.1529978,15.1875 11.6691059,14.9744487 12.0952148,14.5483398 C12.5213237,14.1222309 12.734375,13.6061228 12.734375,13 Z M21.5458984,8.625 C21.4456375,8.10090884 21.194989,7.63834836 20.7939453,7.23730469 C20.2607395,6.7040989 19.6158892,6.4375 18.859375,6.4375 C18.1028608,6.4375 17.4580105,6.7040989 16.9248047,7.23730469 C16.523761,7.63834836 16.2731125,8.10090884 16.1728516,8.625 L21.5458984,8.625 Z M20.9648438,11.140625 C21.1152351,11.140625 21.2439773,11.1941726 21.3510742,11.3012695 C21.4581711,11.4083664 21.5117188,11.5371086 21.5117188,11.6875 C21.5117188,11.8378914 21.4593104,11.9677729 21.3544922,12.0771484 C20.6481084,12.6923859 19.816411,13 18.859375,13 C17.802078,13 16.8997433,12.6263058 16.1523438,11.8789062 C15.4049442,11.1315067 15.03125,10.229172 15.03125,9.171875 C15.03125,8.11457805 15.4049442,7.21224332 16.1523438,6.46484375 C16.8997433,5.71744418 17.802078,5.34375 18.859375,5.34375 C19.916672,5.34375 20.8190067,5.71744418 21.5664062,6.46484375 C22.3138058,7.21224332 22.6875,8.11457805 22.6875,9.171875 C22.6875,9.32226638 22.6339524,9.45100858 22.5268555,9.55810547 C22.4197586,9.66520236 22.2910164,9.71875 22.140625,9.71875 L16.1728516,9.71875 C16.2731125,10.2428412 16.523761,10.7054016 16.9248047,11.1064453 C17.4580105,11.6396511 18.1028608,11.90625 18.859375,11.90625 C19.5429722,11.90625 20.1308569,11.6897808 20.6230469,11.2568359 C20.7233078,11.1793616 20.8372389,11.140625 20.9648438,11.140625 Z M30.34375,9.171875 C30.34375,8.4153608 30.0771511,7.77051048 29.5439453,7.23730469 C29.0107395,6.7040989 28.3658892,6.4375 27.609375,6.4375 C26.8528608,6.4375 26.2080105,6.7040989 25.6748047,7.23730469 C25.1415989,7.77051048 24.875,8.4153608 24.875,9.171875 C24.875,9.9283892 25.1415989,10.5732395 25.6748047,11.1064453 C26.2080105,11.6396511 26.8528608,11.90625 27.609375,11.90625 C28.3658892,11.90625 29.0107395,11.6396511 29.5439453,11.1064453 C30.0771511,10.5732395 30.34375,9.9283892 30.34375,9.171875 Z M30.34375,2.59570312 C30.34375,2.44531175 30.3972976,2.31656955 30.5043945,2.20947266 C30.6114914,2.10237577 30.7402336,2.04882812 30.890625,2.04882812 C31.0410164,2.04882812 31.1697586,2.10237577 31.2768555,2.20947266 C31.3839524,2.31656955 31.4375,2.44531175 31.4375,2.59570312 L31.4375,9.171875 C31.4375,10.229172 31.0638058,11.1315067 30.3164062,11.8789062 C29.5690067,12.6263058 28.666672,13 27.609375,13 C26.552078,13 25.6497433,12.6263058 24.9023438,11.8789062 C24.1549442,11.1315067 23.78125,10.229172 23.78125,9.171875 C23.78125,8.11457805 24.1549442,7.21224332 24.9023438,6.46484375 C25.6497433,5.71744418 26.552078,5.34375 27.609375,5.34375 C28.666672,5.34375 29.5690067,5.71744418 30.3164062,6.46484375 L30.34375,6.4921875 L30.34375,2.59570312 Z M34.3085938,3.703125 C34.3085938,3.88997489 34.2413744,4.05061782 34.1069336,4.18505859 C33.9724928,4.31949937 33.8118499,4.38671875 33.625,4.38671875 C33.4381501,4.38671875 33.2775072,4.31949937 33.1430664,4.18505859 C33.0086256,4.05061782 32.9414062,3.88997489 32.9414062,3.703125 C32.9414062,3.51627511 33.0086256,3.35563218 33.1430664,3.22119141 C33.2775072,3.08675063 33.4381501,3.01953125 33.625,3.01953125 C33.8118499,3.01953125 33.9724928,3.08675063 34.1069336,3.22119141 C34.2413744,3.35563218 34.3085938,3.51627511 34.3085938,3.703125 Z M33.078125,5.890625 C33.078125,5.74023362 33.1316726,5.61149142 33.2387695,5.50439453 C33.3458664,5.39729764 33.4746086,5.34375 33.625,5.34375 C33.7753914,5.34375 33.9041336,5.39729764 34.0112305,5.50439453 C34.1183274,5.61149142 34.171875,5.74023362 34.171875,5.890625 L34.171875,12.453125 C34.171875,12.6035164 34.1183274,12.7322586 34.0112305,12.8393555 C33.9041336,12.9464524 33.7753914,13 33.625,13 C33.4746086,13 33.3458664,12.9464524 33.2387695,12.8393555 C33.1316726,12.7322586 33.078125,12.6035164 33.078125,12.453125 L33.078125,5.890625 Z M41.7597656,11.1269531 C41.910157,11.1269531 42.0388992,11.1805008 42.1459961,11.2875977 C42.253093,11.3946945 42.3066406,11.5234367 42.3066406,11.6738281 C42.3066406,11.8242195 42.249675,11.9586583 42.1357422,12.0771484 C41.4293584,12.6923859 40.597661,13 39.640625,13 C38.583328,13 37.6809933,12.6263058 36.9335938,11.8789062 C36.1861942,11.1315067 35.8125,10.229172 35.8125,9.171875 C35.8125,8.11457805 36.1861942,7.21224332 36.9335938,6.46484375 C37.6809933,5.71744418 38.583328,5.34375 39.640625,5.34375 C40.597661,5.34375 41.4293584,5.65136411 42.1357422,6.26660156 C42.263347,6.38053442 42.3271484,6.52180905 42.3271484,6.69042969 C42.3271484,6.84082106 42.2736008,6.96956327 42.1665039,7.07666016 C42.059407,7.18375705 41.9306648,7.23730469 41.7802734,7.23730469 C41.6481113,7.23730469 41.5319015,7.19628947 41.4316406,7.11425781 C40.9212214,6.66308368 40.3242222,6.4375 39.640625,6.4375 C38.8841108,6.4375 38.2392605,6.7040989 37.7060547,7.23730469 C37.1728489,7.77051048 36.90625,8.4153608 36.90625,9.171875 C36.90625,9.9283892 37.1728489,10.5732395 37.7060547,11.1064453 C38.2392605,11.6396511 38.8841108,11.90625 39.640625,11.90625 C40.3242222,11.90625 40.9189428,11.6829449 41.4248047,11.2363281 C41.5205083,11.1634111 41.6321608,11.1269531 41.7597656,11.1269531 Z M51.125,9.171875 C51.125,10.229172 50.7513058,11.1315067 50.0039062,11.8789062 C49.2565067,12.6263058 48.354172,13 47.296875,13 C46.239578,13 45.3372433,12.6263058 44.5898438,11.8789062 C43.8424442,11.1315067 43.46875,10.229172 43.46875,9.171875 C43.46875,8.11457805 43.8424442,7.21224332 44.5898438,6.46484375 C45.3372433,5.71744418 46.239578,5.34375 47.296875,5.34375 C48.354172,5.34375 49.2565067,5.71744418 50.0039062,6.46484375 C50.7513058,7.21224332 51.125,8.11457805 51.125,9.171875 Z M47.296875,6.4375 C46.5403608,6.4375 45.8955105,6.7040989 45.3623047,7.23730469 C44.8290989,7.77051048 44.5625,8.4153608 44.5625,9.171875 C44.5625,9.9283892 44.8290989,10.5732395 45.3623047,11.1064453 C45.8955105,11.6396511 46.5403608,11.90625 47.296875,11.90625 C48.0533892,11.90625 48.6982395,11.6396511 49.2314453,11.1064453 C49.7646511,10.5732395 50.03125,9.9283892 50.03125,9.171875 C50.03125,8.4153608 49.7646511,7.77051048 49.2314453,7.23730469 C48.6982395,6.7040989 48.0533892,6.4375 47.296875,6.4375 Z M58.78125,9.171875 C58.78125,8.4153608 58.5146511,7.77051048 57.9814453,7.23730469 C57.4482395,6.7040989 56.8033892,6.4375 56.046875,6.4375 C55.2903608,6.4375 54.6455105,6.7040989 54.1123047,7.23730469 C53.5790989,7.77051048 53.3125,8.4153608 53.3125,9.171875 C53.3125,9.9283892 53.5790989,10.5732395 54.1123047,11.1064453 C54.6455105,11.6396511 55.2903608,11.90625 56.046875,11.90625 C56.8033892,11.90625 57.4482395,11.6396511 57.9814453,11.1064453 C58.5146511,10.5732395 58.78125,9.9283892 58.78125,9.171875 Z M58.78125,2.59570312 C58.78125,2.44531175 58.8347976,2.31656955 58.9418945,2.20947266 C59.0489914,2.10237577 59.1777336,2.04882812 59.328125,2.04882812 C59.4785164,2.04882812 59.6072586,2.10237577 59.7143555,2.20947266 C59.8214524,2.31656955 59.875,2.44531175 59.875,2.59570312 L59.875,9.171875 C59.875,10.229172 59.5013058,11.1315067 58.7539062,11.8789062 C58.0065067,12.6263058 57.104172,13 56.046875,13 C54.989578,13 54.0872433,12.6263058 53.3398438,11.8789062 C52.5924442,11.1315067 52.21875,10.229172 52.21875,9.171875 C52.21875,8.11457805 52.5924442,7.21224332 53.3398438,6.46484375 C54.0872433,5.71744418 54.989578,5.34375 56.046875,5.34375 C57.104172,5.34375 58.0065067,5.71744418 58.7539062,6.46484375 L58.78125,6.4921875 L58.78125,2.59570312 Z M67.4833984,8.625 C67.3831375,8.10090884 67.132489,7.63834836 66.7314453,7.23730469 C66.1982395,6.7040989 65.5533892,6.4375 64.796875,6.4375 C64.0403608,6.4375 63.3955105,6.7040989 62.8623047,7.23730469 C62.461261,7.63834836 62.2106125,8.10090884 62.1103516,8.625 L67.4833984,8.625 Z M66.9023438,11.140625 C67.0527351,11.140625 67.1814773,11.1941726 67.2885742,11.3012695 C67.3956711,11.4083664 67.4492188,11.5371086 67.4492188,11.6875 C67.4492188,11.8378914 67.3968104,11.9677729 67.2919922,12.0771484 C66.5856084,12.6923859 65.753911,13 64.796875,13 C63.739578,13 62.8372433,12.6263058 62.0898438,11.8789062 C61.3424442,11.1315067 60.96875,10.229172 60.96875,9.171875 C60.96875,8.11457805 61.3424442,7.21224332 62.0898438,6.46484375 C62.8372433,5.71744418 63.739578,5.34375 64.796875,5.34375 C65.854172,5.34375 66.7565067,5.71744418 67.5039062,6.46484375 C68.2513058,7.21224332 68.625,8.11457805 68.625,9.171875 C68.625,9.32226638 68.5714524,9.45100858 68.4643555,9.55810547 C68.3572586,9.66520236 68.2285164,9.71875 68.078125,9.71875 L62.1103516,9.71875 C62.2106125,10.2428412 62.461261,10.7054016 62.8623047,11.1064453 C63.3955105,11.6396511 64.0403608,11.90625 64.796875,11.90625 C65.4804722,11.90625 66.0683569,11.6897808 66.5605469,11.2568359 C66.6608078,11.1793616 66.7747389,11.140625 66.9023438,11.140625 Z"/>
      <path fill="#044CB3" d="M6.77441406,8.50390625 C7.02506636,8.67252688 7.15039062,8.88216021 7.15039062,9.1328125 C7.15039062,9.40169405 7.02506636,9.613606 6.77441406,9.76855469 L1.60644531,12.8720703 C1.50618439,12.9313154 1.387696,12.9609375 1.25097656,12.9609375 C1.05045473,12.9609375 0.88069731,12.8937181 0.741699219,12.7592773 C0.602701128,12.6248366 0.533203125,12.4550792 0.533203125,12.25 C0.533203125,11.9947904 0.651691523,11.7897143 0.888671875,11.6347656 L5.05175781,9.1328125 L0.888671875,6.64453125 C0.651691523,6.48958256 0.533203125,6.28222786 0.533203125,6.02246094 C0.533203125,5.92220002 0.552571421,5.82877647 0.591308594,5.7421875 C0.630045767,5.65559853 0.681314785,5.58040396 0.745117188,5.51660156 C0.80891959,5.45279916 0.88411415,5.40153014 0.970703125,5.36279297 C1.0572921,5.3240558 1.15071564,5.3046875 1.25097656,5.3046875 C1.387696,5.3046875 1.50618439,5.3343096 1.60644531,5.39355469 L6.77441406,8.50390625 Z"/>
    </g>
    <rect width="6" height="15" x="71" y="2" fill="#044CB3"/>
  </g>
</svg>
